PathFileType	4	(X/Y/Z)	..\data\2014001\dynamic\2014001_C4_05.trc
DataRate	CameraRate	NumFrames	NumMarkers	Units	OrigDataRate	OrigDataStartFrame	OrigNumFrames
100.000000	100.000000	4	52	mm	100.000000	19	156
Frame#	Time	L_IAS			L_IPS			R_IPS			R_IAS			L_FTC			L_FLE			L_FME			L_FAX			L_TTC			L_FAL			L_TAM			L_FCC			L_FM1			L_FM2			L_FM5			R_FTC			R_FLE			R_FME			R_FAX			R_TTC			R_FAL			R_TAM			R_FCC			R_FM1			R_FM2			R_FM5			CV7			TV10			SXS			SJN			L_SIA			L_SRS			L_SAA			L_SAE			L_HLE			L_HME			L_UOA			L_RSP			L_UHE			L_HM2			L_HM5			R_SIA			R_SRS			R_SAA			R_SAE			R_HLE			R_HME			R_UOA			R_RSP			R_UHE			R_HM2			R_HM5			
		X1	Y1	Z1	X2	Y2	Z2	X3	Y3	Z3	X4	Y4	Z4	X5	Y5	Z5	X6	Y6	Z6	X7	Y7	Z7	X8	Y8	Z8	X9	Y9	Z9	X10	Y10	Z10	X11	Y11	Z11	X12	Y12	Z12	X13	Y13	Z13	X14	Y14	Z14	X15	Y15	Z15	X16	Y16	Z16	X17	Y17	Z17	X18	Y18	Z18	X19	Y19	Z19	X20	Y20	Z20	X21	Y21	Z21	X22	Y22	Z22	X23	Y23	Z23	X24	Y24	Z24	X25	Y25	Z25	X26	Y26	Z26	X27	Y27	Z27	X28	Y28	Z28	X29	Y29	Z29	X30	Y30	Z30	X31	Y31	Z31	X32	Y32	Z32	X33	Y33	Z33	X34	Y34	Z34	X35	Y35	Z35	X36	Y36	Z36	X37	Y37	Z37	X38	Y38	Z38	X39	Y39	Z39	X40	Y40	Z40	X41	Y41	Z41	X42	Y42	Z42	X43	Y43	Z43	X44	Y44	Z44	X45	Y45	Z45	X46	Y46	Z46	X47	Y47	Z47	X48	Y48	Z48	X49	Y49	Z49	X50	Y50	Z50	X51	Y51	Z51	X52	Y52	Z52	

20	0.19	-911.8635864257815	856.828796386719	107.3652725219726	-1083.9208984375	896.653259277344	191.1420898437499	-1082.365966796875	896.4207153320315	281.5806884765624	-896.082458496094	875.1582641601565	344.4183654785156	-994.9539794921877	768.951599121094	55.69326400756825	-1011.315673828125	424.5325012207032	59.32028579711903	-972.0725097656252	391.1767883300782	172.6587371826171	-1060.820678710938	390.9135742187501	56.35280227661121	-1023.307800292969	323.3994140625001	94.36839294433582	-1323.060180664063	214.9749145507813	116.5222167968749	-1287.2666015625	192.6993713378907	197.1460418701171	-1364.080810546875	229.9482421875001	172.9773101806639	-1297.62939453125	70.19840240478517	184.698287963867	-1297.15771484375	68.95464324951173	126.0885772705077	-1334.584716796875	102.5742568969727	90.79125976562484	-973.772399902344	777.2207641601565	410.3347473144531	-852.8477783203127	442.0825805664064	364.8187866210937	-845.3587036132815	437.728485107422	246.0840759277343	-862.506774902344	375.9288330078126	368.5818176269531	-802.6279907226565	375.6770324707032	313.8888549804687	-893.7033691406252	66.27161407470705	318.9436340332031	-858.0520629882815	81.44982147216798	236.0772857666015	-938.2900390625002	26.39464950561524	264.1084289550781	-750.7280273437501	24.07255744934083	244.7203369140625	-745.4931030273439	35.08996582031251	309.6194763183593	-804.0063476562502	22.88570976257325	355.6454162597656	-1060.115356445313	1365.92236328125	249.6546630859374	-1116.450805664063	1129.373413085938	238.5463714599609	-882.797790527344	1141.955932617188	233.0675048828124	-931.8287353515627	1302.565307617188	241.9989013671874	-1121.14501953125	1172.142211914063	144.8900299072264	-1104.330444335938	1304.294067382813	157.4766998291014	-1031.193115234375	1306.119995117188	48.63342666625965	-991.1571044921877	1318.796997070313	64.71454620361317	-1007.414916992188	1039.780883789063	-35.66613388061536	-1027.275390625	997.3942871093752	36.24482345581043	-1032.482421875	995.2797851562502	-14.42984199523939	-839.1304931640627	857.1382446289065	21.32545471191396	-874.6685791015627	833.5686645507815	-47.47211837768566	-774.7974853515627	799.6797485351565	18.63984298706045	-843.361999511719	762.0009155273439	-46.30379486083996	-1123.281372070313	1168.2998046875	351.8771972656249	-1098.066040039063	1294.669921875	333.8747253417968	-1020.306762695313	1287.945068359375	435.7821960449219	-971.4675903320315	1292.14599609375	425.0670166015625	-1038.977905273438	992.5527343750002	482.4371032714844	-1067.498779296875	982.9561157226565	405.8696899414062	-1073.5849609375	977.8725585937502	451.6618041992188	-985.1721191406252	770.1923828125002	455.9957885742188	-1037.412231445313	779.2066040039065	518.3789672851562	-968.0559082031253	681.1035156250001	472.5096130371094	-1055.4306640625	700.0404663085939	521.4432373046875	
21	0.2	-899.1134033203127	859.855407714844	108.0077056884765	-1070.651123046875	898.826354980469	193.1735687255859	-1068.809204101563	898.8192138671877	283.4905395507812	-882.2068481445315	877.1671142578127	345.2785949707031	-980.6234130859377	770.8276367187502	57.57020187377919	-983.1492919921877	425.8810119628907	60.12009048461903	-944.7661743164065	393.7395629882814	174.460723876953	-1031.819580078125	392.0587158203126	56.95827484130848	-994.545349121094	324.9305725097657	96.00296020507803	-1294.834594726563	218.0030212402344	116.8490524291991	-1259.732543945313	195.666732788086	197.8630371093749	-1337.057861328125	231.8370513916016	172.9329986572264	-1266.532836914063	73.25007629394533	182.7882385253905	-1266.097778320313	72.87364959716798	124.4830474853514	-1303.940673828125	106.9043807983399	89.49157714843736	-959.964050292969	779.3657226562502	411.4634399414062	-847.0068969726565	441.6676635742189	365.1582641601562	-840.153259277344	437.0696411132814	246.3079833984374	-858.163269042969	375.4771423339844	368.7622680664062	-798.201110839844	374.3948974609376	314.1519165039062	-893.6946411132815	66.41098785400392	318.7444458007812	-857.9646606445315	81.48509979248048	235.8793945312499	-938.278991699219	26.53880691528321	264.1511535644531	-750.9368286132814	24.21870994567872	244.5009155273437	-745.5586547851564	35.59028625488282	309.5166015624999	-804.162536621094	23.29760932922364	355.6516723632812	-1046.478637695313	1368.536743164063	250.5762481689452	-1103.138061523438	1131.955078125	240.3301696777343	-869.5801391601565	1144.345947265625	233.0477294921874	-918.385192871094	1305.043334960938	242.1109924316406	-1108.4853515625	1174.627685546875	146.8390045166014	-1091.363647460938	1306.885986328125	158.8778381347655	-1019.046508789063	1308.329467773438	49.44951629638661	-978.944519042969	1320.970092773438	65.10984039306631	-997.5264282226565	1041.433959960938	-33.52809906005872	-1017.206237792969	999.7360839843752	38.7522392272948	-1023.160400390625	997.773376464844	-11.64571285247816	-834.099060058594	853.6119384765627	20.08601379394521	-871.9006958007815	831.3824462890627	-48.14668273925793	-771.909362792969	793.8238525390627	15.94069576263419	-843.1524047851565	758.8756713867189	-47.77829360961925	-1108.830810546875	1171.070556640625	353.9829711914062	-1083.85205078125	1297.387573242188	335.3610839843749	-1005.107604980469	1290.695556640625	436.6430053710938	-956.3626708984377	1294.83154296875	425.2770385742188	-1020.487243652344	995.0585937500002	484.8368835449219	-1050.035400390625	984.759216308594	408.6238403320312	-1055.49560546875	979.8701171875002	454.5509643554688	-964.860046386719	773.0862426757815	458.3511352539062	-1016.024719238282	781.9154052734377	521.4556884765625	-946.2255859375003	684.4039306640626	475.15478515625	-1033.07666015625	702.6379394531251	525.2664794921875	
22	0.21	-886.4514770507815	863.0905761718752	108.5764007568359	-1057.497436523438	901.2107543945315	195.1986999511718	-1055.317626953125	901.307556152344	285.4058532714843	-868.4561157226565	879.1753540039065	346.0279541015624	-966.5379028320315	773.1242675781252	59.3248176574706	-955.2706298828127	427.9307861328126	61.02738952636709	-917.811218261719	397.0574340820314	176.3343658447265	-1003.115905761719	393.6920471191407	57.7642707824706	-965.745544433594	327.1927185058594	97.6793670654296	-1265.646850585938	219.5639190673829	117.1033554077147	-1231.07470703125	197.4655151367188	198.5031280517577	-1309.284790039063	231.7943572998047	172.7872467041014	-1233.102661132813	75.34307861328126	180.9291381835936	-1232.54736328125	76.00107574462892	122.8587112426757	-1271.142700195313	109.7835083007813	88.14907836914048	-946.3757324218752	781.4334716796877	412.4994812011719	-841.8756103515627	441.276580810547	365.5366516113281	-835.4653320312502	436.4675598144532	246.6001739501953	-854.4541015625002	375.0307006835938	368.9777526855468	-794.398376464844	373.1745910644532	314.4749755859374	-893.8048095703127	66.47615051269533	318.5968627929687	-857.9974365234377	81.53247070312501	235.7247009277343	-938.3733520507815	26.67184257507325	264.2021484374999	-751.1688842773439	24.44006156921387	244.4320526123047	-745.7290039062501	36.02152252197266	309.4991455078124	-804.3887939453127	23.5105094909668	355.6361694335937	-1032.967529296875	1371.203491210938	251.3548583984374	-1089.948608398438	1134.580932617188	242.0549163818359	-856.5064086914065	1146.81005859375	232.9337005615234	-905.076843261719	1307.590576171875	242.0974884033203	-1095.973754882813	1177.185424804688	148.7336120605468	-1078.538208007813	1309.52099609375	160.1737823486327	-1007.0576171875	1310.598388671875	50.16618728637685	-966.8985595703127	1323.206665039063	65.40045928955068	-987.5667114257815	1043.20849609375	-31.40544319152845	-1007.196166992188	1002.207763671875	41.2255287170409	-1013.793579101563	1000.406860351563	-8.931672096252568	-829.500183105469	850.179626464844	18.78358840942373	-869.4822998046877	829.4707031250002	-48.86466217041028	-769.6909179687502	788.0225830078127	13.19684600830069	-843.5127563476565	756.0603637695314	-49.27436828613293	-1094.521728515625	1173.963989257813	355.9895629882812	-1069.8017578125	1300.183959960938	336.7174682617187	-990.0769042968752	1293.579833984375	437.3506774902344	-941.4417724609377	1297.662231445313	425.3453063964844	-1001.975646972657	997.7498779296877	487.1651306152344	-1032.571533203125	986.6921997070315	411.3399963378906	-1037.347412109375	981.9824218750002	457.3859252929688	-944.1182861328127	776.281677246094	460.6592407226562	-994.2603149414066	784.8544921875002	524.4569091796875	-923.8108520507816	688.0670776367189	477.8181762695312	-1010.15869140625	705.4714965820314	529.0560302734375	
23	0.22	-873.788269042969	866.4597167968752	109.1551895141601	-1044.412109375	903.7520751953127	197.1439971923827	-1041.8681640625	903.832214355469	287.2657775878906	-854.839782714844	881.1688232421877	346.7392272949218	-952.578796386719	775.7752685546877	60.93492126464834	-927.8135986328127	430.6199035644532	62.00848007202138	-891.2627563476565	401.0209045410157	178.1835021972655	-974.8650512695315	395.7687988281251	58.73184585571278	-937.0320434570315	330.1196594238282	99.30432128906241	-1235.609619140625	219.5526275634766	117.2941360473632	-1201.359985351563	197.956527709961	199.0457153320312	-1280.775756835938	229.7824249267579	172.5756530761717	-1197.672485351563	76.37744140625001	179.1855468749999	-1196.888061523438	78.17920684814455	121.2858505249022	-1236.511962890625	111.1045303344727	86.83486175537095	-933.0476074218752	783.3909912109377	413.4507751464844	-837.3402099609377	440.9327087402345	365.9583129882812	-831.177429199219	435.955535888672	246.9672241210937	-851.2490844726565	374.6203308105469	369.2395324707031	-791.108581542969	372.0440368652344	314.8521118164062	-893.9689941406252	66.4954071044922	318.5056762695312	-858.104431152344	81.5918655395508	235.6148529052734	-938.5364990234377	26.8344841003418	264.2681274414062	-751.3908081054689	24.66435050964356	244.4786834716797	-745.9453125000001	36.32627105712891	309.5475769042968	-804.6519775390627	23.53492164611817	355.6203002929687	-1019.581970214844	1373.868041992188	252.0002746582031	-1076.841674804688	1137.186767578125	243.7145843505859	-843.5283203125002	1149.32958984375	232.7552490234374	-891.8900146484377	1310.1767578125	241.9743041992187	-1083.572387695313	1179.7568359375	150.5617065429686	-1065.83984375	1312.134765625	161.3739013671874	-995.218444824219	1312.883422851563	50.80036544799794	-955.0054321289065	1325.466186523438	65.60064697265615	-977.5627441406252	1045.076416015625	-29.3145561218263	-997.246520996094	1004.77685546875	43.66291427612293	-1004.391235351563	1003.146057128906	-6.296814441681033	-825.3031005859377	846.873474121094	17.42850303649893	-867.351257324219	827.860778808594	-49.625457763672	-768.116394042969	782.323181152344	10.45145511627188	-844.3687744140627	753.6029052734376	-50.78011322021496	-1080.322875976563	1176.916748046875	357.9003295898437	-1055.908935546875	1302.995239257813	337.9457397460937	-975.2270507812502	1296.562377929688	437.9126281738281	-926.7126464843752	1300.6171875	425.29248046875	-983.4762573242191	1000.605834960938	489.41064453125	-1015.1162109375	988.7432250976565	414.0010681152344	-1019.15966796875	984.193298339844	460.1509704589844	-922.9643554687502	779.7811279296877	462.9055480957031	-972.1645507812503	788.0157470703127	527.3570556640625	-900.8583374023441	692.0893554687501	480.4616088867188	-986.7303466796878	708.5367431640626	532.7625732421875	
